<svg xmlns="http://www.w3.org/2000/svg" xmlns:xlink="http://www.w3.org/1999/xlink" viewBox="0 0 384.11 534.92"><defs><filter id="luminosity-noclip" x="245.79" y="-8416.38" width="53.99" height="32766" filterUnits="userSpaceOnUse" color-interpolation-filters="sRGB"><feFlood flood-color="#fff" result="bg"/><feBlend in="SourceGraphic" in2="bg"/></filter><mask id="mask" x="245.79" y="-8416.38" width="53.99" height="32766" maskUnits="userSpaceOnUse"><g style="filter:url(#luminosity-noclip)"/></mask><radialGradient id="_ÂÁ_Ï_ÌÌ_È_ËÂÌÚ_9" cx="498.79" cy="377.36" r="25.85" gradientTransform="matrix(-1, -0.03, -0.03, 1, 782.04, -121.56)" gradientUnits="userSpaceOnUse"><stop offset="0" stop-color="#fff"/><stop offset="1"/></radialGradient><filter id="luminosity-noclip-2" x="114.97" y="-8416.38" width="53.99" height="32766" filterUnits="userSpaceOnUse" color-interpolation-filters="sRGB"><feFlood flood-color="#fff" result="bg"/><feBlend in="SourceGraphic" in2="bg"/></filter><mask id="mask-2" x="114.97" y="-8416.38" width="53.99" height="32766" maskUnits="userSpaceOnUse"><g style="filter:url(#luminosity-noclip-2)"/></mask><radialGradient id="_ÂÁ_Ï_ÌÌ_È_ËÂÌÚ_9-2" cx="932.19" cy="390.15" r="25.85" gradientTransform="translate(-800.88 -121.56) rotate(-1.63)" xlink:href="#_ÂÁ_Ï_ÌÌ_È_ËÂÌÚ_9"/><linearGradient id="_ÂÁ_Ï_ÌÌ_È_ËÂÌÚ_51" x1="208.77" y1="59.33" x2="205.89" y2="273.55" gradientUnits="userSpaceOnUse"><stop offset="0" stop-color="#862610"/><stop offset="1" stop-color="#1d0907"/></linearGradient><linearGradient id="_ÂÁ_Ï_ÌÌ_È_ËÂÌÚ_27" x1="104.91" y1="424.61" x2="254.85" y2="424.61" gradientTransform="translate(-6.64 -18.96) rotate(-4.27)" gradientUnits="userSpaceOnUse"><stop offset="0" stop-color="#fca776"/><stop offset="1" stop-color="#fdba7b"/></linearGradient><linearGradient id="_ÂÁ_Ï_ÌÌ_È_ËÂÌÚ_27-2" x1="176.53" y1="345.23" x2="234.62" y2="345.23" gradientTransform="matrix(1, 0, 0, 1, 0, 0)" xlink:href="#_ÂÁ_Ï_ÌÌ_È_ËÂÌÚ_27"/><linearGradient id="_ÂÁ_Ï_ÌÌ_È_ËÂÌÚ_27-3" x1="500.76" y1="133.04" x2="750.43" y2="133.04" gradientTransform="matrix(-0.94, 0.35, 0.35, 0.94, 745.08, -149.08)" xlink:href="#_ÂÁ_Ï_ÌÌ_È_ËÂÌÚ_27"/><filter id="luminosity-noclip-3" x="245.79" y="216.82" width="53.99" height="49.27" filterUnits="userSpaceOnUse" color-interpolation-filters="sRGB"><feFlood flood-color="#fff" result="bg"/><feBlend in="SourceGraphic" in2="bg"/></filter><mask id="mask-3" x="245.79" y="216.82" width="53.99" height="49.27" maskUnits="userSpaceOnUse"><g style="mask:url(#mask);filter:url(#luminosity-noclip-3)"><path d="M281.91,217.5c3,.61,9.64,2,14,7.73,6.09,7.94,3.9,19.05.5,25.66C292,259.47,282.31,266.8,270.76,266c-13.26-.87-20.2-11.82-20.81-12.81-1.34-2.2-6.34-11.1-3.08-20.45C251.53,219.4,269.67,215,281.91,217.5Z" style="mix-blend-mode:multiply;fill:url(#_ÂÁ_Ï_ÌÌ_È_ËÂÌÚ_9)"/></g></mask><radialGradient id="_ÂÁ_Ï_ÌÌ_È_ËÂÌÚ_19" cx="498.79" cy="377.36" r="25.85" gradientTransform="matrix(-1, -0.03, -0.03, 1, 782.04, -121.56)" gradientUnits="userSpaceOnUse"><stop offset="0" stop-color="#ff0800"/><stop offset="1" stop-color="#ff0800"/></radialGradient><linearGradient id="_ÂÁ_Ï_ÌÌ_È_ËÂÌÚ_27-4" x1="309.68" y1="194.9" x2="326.12" y2="194.9" gradientTransform="matrix(1, 0, 0, 1, 0, 0)" xlink:href="#_ÂÁ_Ï_ÌÌ_È_ËÂÌÚ_27"/><linearGradient id="_ÂÁ_Ï_ÌÌ_È_ËÂÌÚ_27-5" x1="308.43" y1="215.68" x2="327.37" y2="215.68" gradientTransform="matrix(1, 0, 0, 1, 0, 0)" xlink:href="#_ÂÁ_Ï_ÌÌ_È_ËÂÌÚ_27"/><linearGradient id="_ÂÁ_Ï_ÌÌ_È_ËÂÌÚ_27-6" x1="146.39" y1="224.63" x2="165.34" y2="224.63" gradientTransform="matrix(-0.99, 0.16, 0.16, 0.99, 216.5, -27.48)" xlink:href="#_ÂÁ_Ï_ÌÌ_È_ËÂÌÚ_27"/><linearGradient id="_ÂÁ_Ï_ÌÌ_È_ËÂÌÚ_27-7" x1="-41.64" y1="195.92" x2="-25.21" y2="195.92" gradientTransform="matrix(-1, 0, 0, 1, 63.2, 0)" xlink:href="#_ÂÁ_Ï_ÌÌ_È_ËÂÌÚ_27"/><filter id="luminosity-noclip-4" x="114.97" y="217.26" width="53.99" height="49.27" filterUnits="userSpaceOnUse" color-interpolation-filters="sRGB"><feFlood flood-color="#fff" result="bg"/><feBlend in="SourceGraphic" in2="bg"/></filter><mask id="mask-4" x="114.97" y="217.26" width="53.99" height="49.27" maskUnits="userSpaceOnUse"><g style="mask:url(#mask-2);filter:url(#luminosity-noclip-4)"><path d="M132.83,217.94c-3,.61-9.63,2-14,7.73-6.09,7.94-3.89,19.05-.49,25.66,4.41,8.58,14.12,15.91,25.68,15.15,13.26-.87,20.2-11.81,20.8-12.81,1.35-2.2,6.34-11.1,3.09-20.44C163.22,219.84,145.08,215.41,132.83,217.94Z" style="mix-blend-mode:multiply;fill:url(#_ÂÁ_Ï_ÌÌ_È_ËÂÌÚ_9-2)"/></g></mask><radialGradient id="_ÂÁ_Ï_ÌÌ_È_ËÂÌÚ_19-2" cx="932.19" cy="390.15" r="25.85" gradientTransform="translate(-800.88 -121.56) rotate(-1.63)" xlink:href="#_ÂÁ_Ï_ÌÌ_È_ËÂÌÚ_19"/><linearGradient id="_ÂÁ_Ï_ÌÌ_È_ËÂÌÚ_51-2" x1="148.36" y1="208.88" x2="146.43" y2="351.82" xlink:href="#_ÂÁ_Ï_ÌÌ_È_ËÂÌÚ_51"/><linearGradient id="_ÂÁ_Ï_ÌÌ_È_ËÂÌÚ_51-3" x1="-89.57" y1="235.04" x2="-91.43" y2="373.35" gradientTransform="matrix(-1, 0, 0, 1, 173.44, 0)" xlink:href="#_ÂÁ_Ï_ÌÌ_È_ËÂÌÚ_51"/><linearGradient id="_ÂÁ_Ï_ÌÌ_È_ËÂÌÚ_8" x1="-249.87" y1="381.6" x2="-216.12" y2="381.6" gradientTransform="matrix(0.74, 0.37, -0.37, 0.78, 577.01, -10.64)" gradientUnits="userSpaceOnUse"><stop offset="0" stop-color="#342a10"/><stop offset="1" stop-color="#68c0a6"/></linearGradient><linearGradient id="_ÂÁ_Ï_ÌÌ_È_ËÂÌÚ_8-2" x1="-545.1" y1="536.11" x2="-511.35" y2="536.11" gradientTransform="matrix(-0.68, 0.46, 0.46, 0.72, -461.68, 55.37)" xlink:href="#_ÂÁ_Ï_ÌÌ_È_ËÂÌÚ_8"/></defs><title>facial-recognition</title><g style="isolation:isolate"><g id="Layer_2" data-name="Layer 2"><g id="_3" data-name="3"><g style="opacity:0.43"><path d="M216.57,166.52l-13.09-.32-.08,3.12c0,1-.15,2.08-.21,3.12-.18,2.07-.26,4.16-.57,6.22l13,1.51c.34-2.26.44-4.55.63-6.82.07-1.14.2-2.27.23-3.41Zm-10,6.15a3.28,3.28,0,0,1,3.42-3,3.13,3.13,0,0,1,3,3.42,3.17,3.17,0,0,1-3.45,3A3.24,3.24,0,0,1,206.52,172.67Z" style="fill:#5161ab;opacity:0.8"/><path d="M215.65,145.77l-13,1.49c.31,2.06.37,4.15.56,6.22s.22,4.16.27,6.24l13.09-.3c0-2.28-.08-4.56-.3-6.83S216,148,215.65,145.77Zm-9.11,7.48a3.23,3.23,0,0,1,3-3.41,3.18,3.18,0,0,1,3.45,3,3.13,3.13,0,0,1-3,3.41A3.27,3.27,0,0,1,206.54,153.25Z" style="fill:#5161ab;opacity:0.8"/></g><g style="opacity:0.25"><path d="M192.05,394.66c-105.89,0-192-86.15-192-192S86.16,10.55,192.05,10.55,384.11,96.71,384.11,202.61,298,394.66,192.05,394.66Zm0-364.11c-94.87,0-172,77.19-172,172.06S97.18,374.66,192.05,374.66s172.06-77.18,172.06-172S286.93,30.55,192.05,30.55Z" style="fill:#7dcad7"/></g><g style="opacity:0.29"><path d="M192.05,353.44C106.72,353.44,37.3,284,37.3,198.68S106.72,43.92,192.05,43.92s154.76,69.42,154.76,154.76S277.39,353.44,192.05,353.44Zm0-308.52c-84.78,0-153.75,69-153.75,153.76s69,153.76,153.75,153.76,153.76-69,153.76-153.76S276.84,44.92,192.05,44.92Z" style="fill:#7dcad7"/></g><g style="opacity:0.29"><path d="M192.7,331.47c-73.12,0-132.61-59.49-132.61-132.61S119.58,66.25,192.7,66.25s132.61,59.49,132.61,132.61S265.82,331.47,192.7,331.47Zm0-264.37C120.05,67.1,61,126.21,61,198.86s59.1,131.75,131.75,131.75S324.45,271.5,324.45,198.86,265.35,67.1,192.7,67.1Z" style="fill:#fff"/></g><polygon points="76.66 127.47 69.13 127.47 69.13 63.87 136.78 63.87 136.78 71.39 76.66 71.39 76.66 127.47" style="fill:#535c68"/><polygon points="345.39 127.47 337.86 127.47 337.86 71.39 277.74 71.39 277.74 63.87 345.39 63.87 345.39 127.47" style="fill:#535c68"/><polygon points="346.71 332.1 279.06 332.1 279.06 324.57 339.18 324.57 339.18 268.49 346.71 268.49 346.71 332.1" style="fill:#535c68"/><polygon points="138.1 332.1 70.45 332.1 70.45 268.49 77.98 268.49 77.98 324.57 138.1 324.57 138.1 332.1" style="fill:#535c68"/><path d="M211.55,297.43c82.16-1.45,136.6-45.26,151.3-57.93-1.71-17.84-16.9-160.37-95.1-215.29C256.1,16,233.39.08,202,0c-33.79-.09-58.22,18.3-70.71,27.7-77.09,58-81.13,192.42-81.46,210.07C63.38,249.67,122.47,299,211.55,297.43Z" style="fill:url(#_ÂÁ_Ï_ÌÌ_È_ËÂÌÚ_51)"/><path d="M178.11,329.62l-4.41,86.22L132,428.58c7.72,6,36.37,26.79,78,25.38a121.59,121.59,0,0,0,72.25-27.32l-43.62-11.86Q234.83,371.91,231,329Z" style="fill:url(#_ÂÁ_Ï_ÌÌ_È_ËÂÌÚ_27)"/><path d="M177.46,342.31l-.93,18.06a86.36,86.36,0,0,0,39.05,10.94,83.53,83.53,0,0,0,19-1.61l-4.09-50.59Z" style="opacity:0.30000000000000004;mix-blend-mode:multiply;fill:url(#_ÂÁ_Ï_ÌÌ_È_ËÂÌÚ_27-2)"/><path d="M313.39,181.68c5-3.6,9.66-5.54,12.92-3.92,11.79,5.85,4.88,58.1-11.79,61.79-3.18.7-6.48-.42-9.61-2.4a166,166,0,0,1-84,112.64,29.86,29.86,0,0,1-29.28-.42,174.18,174.18,0,0,1-81.11-105,13.15,13.15,0,0,1-8.24,1.8c-18.07-2.7-30.71-53.76-17.08-64.07,4-3,10-2.46,16.8-.13-1.45-5-15-54.2,17.37-94.91,29.26-36.84,73.31-38,83.75-38.31,8.82-.24,59-1.59,91.38,39.38C326.23,128.3,314.85,176,313.39,181.68Z" style="fill:url(#_ÂÁ_Ï_ÌÌ_È_ËÂÌÚ_27-3)"/><g style="mask:url(#mask-3)"><path d="M281.91,217.5c3,.61,9.64,2,14,7.73,6.09,7.94,3.9,19.05.5,25.66C292,259.47,282.31,266.8,270.76,266c-13.26-.87-20.2-11.82-20.81-12.81-1.34-2.2-6.34-11.1-3.08-20.45C251.53,219.4,269.67,215,281.91,217.5Z" style="opacity:0.32;fill:url(#_ÂÁ_Ï_ÌÌ_È_ËÂÌÚ_19)"/></g><path d="M288.41,218.94a4.54,4.54,0,1,0,6.35-1A4.54,4.54,0,0,0,288.41,218.94Z" style="fill:#fdac74;opacity:0.30000000000000004;mix-blend-mode:screen"/><path d="M236.64,136.14c.18,2.87.35,5.74.53,8.61,7.27-2.64,28.24-9.14,47.37.87a46.8,46.8,0,0,1,13.62,10.84,37,37,0,0,0-6.58-12.63c-6-7.41-13.36-9.74-17.59-11C258.44,128.1,243.19,133.41,236.64,136.14Z" style="fill:#1a0a0b"/><path d="M326,183.73c-.82-1.06-5.77,2.4-8.8,5.62-6,6.34-8.43,15.91-7.19,16.83C312.12,207.75,327.67,185.94,326,183.73Z" style="opacity:0.30000000000000004;mix-blend-mode:multiply;fill:url(#_ÂÁ_Ï_ÌÌ_È_ËÂÌÚ_27-4)"/><path d="M308.5,220.76c.63-1.94,5.06-.39,9.61-3.21,7.52-4.65,7.11-16.12,8-16,1.32.16,3.43,25.25-4.81,28C316,231.35,307.56,223.65,308.5,220.76Z" style="opacity:0.30000000000000004;mix-blend-mode:multiply;fill:url(#_ÂÁ_Ï_ÌÌ_È_ËÂÌÚ_27-5)"/><path d="M107.64,222.26c-.93-1.81-5.06.4-10-1.67-8.15-3.42-9.54-14.82-10.41-14.57-1.27.36.55,25.48,9.12,26.94C101.83,233.89,109,225,107.64,222.26Z" style="opacity:0.30000000000000004;mix-blend-mode:multiply;fill:url(#_ÂÁ_Ï_ÌÌ_È_ËÂÌÚ_27-6)"/><path d="M88.54,184.76c.81-1.07,5.76,2.39,8.79,5.61,6,6.34,8.44,15.92,7.2,16.84C102.41,208.78,86.85,187,88.54,184.76Z" style="opacity:0.30000000000000004;mix-blend-mode:multiply;fill:url(#_ÂÁ_Ï_ÌÌ_È_ËÂÌÚ_27-7)"/><path d="M191.45,249.43c.59-1,5.48,3.16,13.88,3.2,8,0,12.74-3.69,13.35-2.67.75,1.25-5.11,8.81-12.81,9.08C197.39,259.33,190.7,250.64,191.45,249.43Z" style="fill:#fc643b"/><path d="M172.8,137.87q-.3,4.31-.59,8.6c-7.26-2.69-28.17-9.37-47.38.48a47,47,0,0,0-13.71,10.73,36.93,36.93,0,0,1,6.69-12.57c6.1-7.37,13.43-9.63,17.68-10.88C151.08,129.65,166.28,135.09,172.8,137.87Z" style="fill:#1a0a0b"/><path d="M194.12,323.63c.24.38,5.17-4.46,12.28-4.28,6.62.17,11,4.6,11.21,4.28s-4.83-6.43-11.8-6.42S193.86,323.22,194.12,323.63Z" style="fill:#fc643b"/><path d="M206.4,327.91c-5.83-.15-10.85,5.93-9.61,11.75a9.76,9.76,0,0,0,10.14,7.48,9.58,9.58,0,0,0,8.41-6.81C216.87,334.75,212.39,328.07,206.4,327.91Z" style="fill:#fdac74;opacity:0.30000000000000004;mix-blend-mode:screen"/><path d="M205,237c-1.66,0-2.74,2-4.11,3.9a34.07,34.07,0,0,1-8.61,8.31,27.83,27.83,0,0,0,26.13.3,35.62,35.62,0,0,1-9.41-8.91C207.83,238.9,206.67,236.93,205,237Z" style="fill:#fdac74;opacity:0.30000000000000004;mix-blend-mode:screen"/><g style="mask:url(#mask-4)"><path d="M132.83,217.94c-3,.61-9.63,2-14,7.73-6.09,7.94-3.89,19.05-.49,25.66,4.41,8.58,14.12,15.91,25.68,15.15,13.26-.87,20.2-11.81,20.8-12.81,1.35-2.2,6.34-11.1,3.09-20.44C163.22,219.84,145.08,215.41,132.83,217.94Z" style="opacity:0.32;fill:url(#_ÂÁ_Ï_ÌÌ_È_ËÂÌÚ_19-2)"/></g><path d="M115.85,223.48a4.54,4.54,0,1,0,6.34-1A4.53,4.53,0,0,0,115.85,223.48Z" style="fill:#fdac74;opacity:0.30000000000000004;mix-blend-mode:screen"/><path d="M233.63,277.92A54.09,54.09,0,0,0,178,279.26a41.52,41.52,0,0,0,26,10.32C220.72,290,231.62,279.87,233.63,277.92Z" style="fill:#b50c0f"/><path d="M178,279.26a46.23,46.23,0,0,0,55.62-1.34c.75,16.83-13.09,30.52-28.72,30C190.4,307.46,178,294.86,178,279.26Z" style="fill:#cd1516"/><path d="M203.12,48.8c3.26,10.7,5.55,25-1.39,36.46-13.24,21.9-45.24,15.79-67.14,30.6-17.72,12-35.13,42.44-24.07,128.56C102.07,226,83.17,177.68,99.13,123.3c5.68-19.34,14.92-50.4,45-66.86C166.44,44.2,190.22,46.44,203.12,48.8Z" style="fill:url(#_ÂÁ_Ï_ÌÌ_È_ËÂÌÚ_51-2)"/><path d="M203.12,48.8c-1.77,10.27-2.28,24.07,5.27,35.34C225,108.92,261.2,99.81,285,117.59c16.33,12.18,32,41.28,19.87,119.56,7.09-16.22,27.72-69,6.34-124.22-6.11-15.8-16.62-42.75-45.22-57.61C241.5,42.57,216,46,203.12,48.8Z" style="fill:url(#_ÂÁ_Ï_ÌÌ_È_ËÂÌÚ_51-3)"/><path d="M203.12,48.8c-1.77,10.27-2.28,24.07,5.27,35.34C225,108.92,261.2,99.81,285,117.59c16.33,12.18,32,41.28,19.87,119.56,7.09-16.22,27.72-69,6.34-124.22-6.11-15.8-16.62-42.75-45.22-57.61C241.5,42.57,216,46,203.12,48.8Z" style="fill:url(#_ÂÁ_Ï_ÌÌ_È_ËÂÌÚ_51-3)"/><path d="M288.46,202.8c-2.06,10.35-14.92,14.45-17.35,15.16-14.32,4.17-26.46-4.69-28.08-5.91-.43-20.47,13.14-34.3,24.79-33.87C278.64,178.59,290.72,191.41,288.46,202.8Z" style="fill:#fff"/><path d="M278.67,202.88c-1.9,7.79-9.45,12.64-16.87,10.83s-11.91-9.58-10-17.36,9.44-12.64,16.86-10.83S280.56,195.1,278.67,202.88Z" style="fill:url(#_ÂÁ_Ï_ÌÌ_È_ËÂÌÚ_8)"/><path d="M273.89,201.48a8.54,8.54,0,1,1-6.18-10.71A8.74,8.74,0,0,1,273.89,201.48Z" style="fill:#221b16"/><path d="M275.14,194.47c-.44,2.78-3.91,4.62-6,3.58-1.63-.82-2.12-3.24-1.69-5s1.85-3.67,3.8-3.67C273.54,189.35,275.52,192.06,275.14,194.47Z" style="fill:#fff;opacity:0.43"/><path d="M299.75,183.33c-4.31-2.38-18.86-9.73-34.95-4.94-3.42,1-9.44,2.88-14.52,8.44-9.16,10-7.54,23.15-7.25,25.22,1.13-13.36,10.17-24.1,21.72-26.53,12-2.54,21.59,5,22.95,6.16a8.74,8.74,0,0,0,5.91.35C297,190.93,299.47,187.48,299.75,183.33Z" style="fill:#1a0a0b"/><path d="M273.21,202.9c.27.68-.87,2.46-2.33,2.2-1.11-.19-1.86-1.47-1.59-2.11C269.71,202,272.86,202,273.21,202.9Z" style="fill:#fff;opacity:0.43"/><path d="M124.77,207.49c3.35,10,16.63,12.44,19.13,12.83,14.74,2.32,25.65-8,27.11-9.43-2.18-20.35-17.39-32.35-28.89-30.44C131.44,182.23,121.08,196.47,124.77,207.49Z" style="fill:#fff"/><path d="M134.46,205.83c2.87,7.48,11,11.33,18.11,8.6s10.59-11,7.72-18.49-11-11.34-18.1-8.6S131.6,198.35,134.46,205.83Z" style="fill:url(#_ÂÁ_Ï_ÌÌ_È_ËÂÌÚ_8-2)"/><path d="M139,203.83a8.54,8.54,0,1,0,4.77-11.4A8.75,8.75,0,0,0,139,203.83Z" style="fill:#221b16"/><path d="M148.79,196.77c.78,2.7,4.46,4.09,6.4,2.79,1.52-1,1.7-3.48,1-5.18s-2.3-3.41-4.24-3.17C149.73,191.49,148.11,194.43,148.79,196.77Z" style="fill:#fff;opacity:0.43"/><path d="M111.1,189.61c4-2.91,17.47-12.05,34-9.34,3.52.58,9.73,1.66,15.47,6.53,10.36,8.78,10.42,22,10.4,24.09-2.82-13.1-13.15-22.6-24.92-23.55-12.26-1-20.77,7.74-22,9a8.66,8.66,0,0,1-5.82,1.09C114.78,196.8,111.91,193.69,111.1,189.61Z" style="fill:#1a0a0b"/><path d="M150.62,205.52a2.16,2.16,0,0,0,2.59,1.89c1.08-.33,1.66-1.69,1.31-2.29C154,204.17,150.85,204.6,150.62,205.52Z" style="fill:#fff;opacity:0.43"/><path d="M287.38,426.89a29.43,29.43,0,0,0-5.17-.25A166.34,166.34,0,0,1,132,428.58a29.66,29.66,0,0,0-7.09.73c-35.49,8.09-46.3,81-49.05,105.61h271C341.16,506,323.7,432,287.38,426.89Z" style="fill:#333d99"/><path d="M202.66,259.55H152.39L106.7,209.66l65.77-64.14Zm-49.83-1h48.54L171.94,147.43l-63.85,62.26Z" style="fill:#fff"/><path d="M199.73,354.67,129.05,289l23.32-30.47h50.16l0,.51ZM130.4,288.9l68.39,63.54,2.71-92.89H152.86Z" style="fill:#fff"/><path d="M169.39,327.44l-20.18-38H129.35l-.11-.37-23.59-83.77,44.16,83.14h52.41Zm-19-38,19.23,36.2,30.5-36.2Zm-20.24-1h18.58L109.14,214Z" style="fill:#fff"/><path d="M202.5,259.86l-.72-.37-95-49.56,22.5-74,.13-.09,76.17-59ZM108,209.42l93.54,48.81,3-179.33-74.39,57.64Z" style="fill:#fff"/><path d="M170.94,212.06,152.25,166l-42.19-17.11,19.56-13.13.2,0,74.78,14.83Zm-58.76-63.44L153,165.18l18.06,44.55,32-58.43-73.24-14.53Z" style="fill:#fff"/></g></g></g></svg>