<svg xmlns="http://www.w3.org/2000/svg" viewBox="0 0 480 384"><title>results</title><g id="Layer_2" data-name="Layer 2"><g id="Layer_1-2" data-name="Layer 1"><path d="M469,2H11a9,9,0,0,0-9,9V373a9,9,0,0,0,9,9H469a9,9,0,0,0,9-9V11A9,9,0,0,0,469,2Z" style="fill:#fff;stroke:#ccc;stroke-miterlimit:10;stroke-width:4px"/><path d="M50,106.83A11,11,0,0,1,47.64,94c3.42-7.94,13.42-9.11,23-9.12,14.68,0,32.21,5,20.52,21.93C91.2,106.83,76.63,116.46,50,106.83Z" style="fill:#ff9a40"/><path d="M64.48,97.32a.45.45,0,0,1-.42-.31A11.93,11.93,0,0,0,60,91.58a.44.44,0,0,1,.5-.72,12.65,12.65,0,0,1,4.4,5.88.45.45,0,0,1-.28.56Z" style="fill:#e96d17"/><path d="M70.71,103.22a.43.43,0,0,1-.37-.2c-3.83-6-15.22-7.69-15.34-7.71a.43.43,0,0,1-.37-.49.44.44,0,0,1,.5-.37c.48.07,11.9,1.8,15.95,8.1a.44.44,0,0,1-.13.6A.44.44,0,0,1,70.71,103.22Z" style="fill:#e96d17"/><path d="M110.21,122H32.27s.79-9.72,5.49-11.6c1.9-.76,6.26-2.93,10.78-5.25,6.32-3.23,13-6.75,13.63-7.11l0,0,.6.13c.74.17,1.49.31,2.24.43s1.49.22,2.23.29A37,37,0,0,0,79.61,98h0s5.1,2.62,10.78,5.49l2.2,1.1c5,2.52,10.06,5,12.11,5.8C109.42,112.28,110.21,122,110.21,122Z" style="fill:#ff9a40"/><path d="M74.86,109.63a24.84,24.84,0,0,1-10.37-2.29,23.64,23.64,0,0,1-6.37-4.18.41.41,0,0,1,.58-.58,23.23,23.23,0,0,0,6.16,4A24,24,0,0,0,81,108a.42.42,0,0,1,.5.3.41.41,0,0,1-.29.5A25.1,25.1,0,0,1,74.86,109.63Z" style="fill:#e96d17"/><path d="M72.84,113.58a22.45,22.45,0,0,1-4.55-.48.41.41,0,0,1,.17-.81c8.1,1.7,13.17-1.86,13.22-1.89a.4.4,0,0,1,.57.09.41.41,0,0,1-.09.57A16.78,16.78,0,0,1,72.84,113.58Z" style="fill:#e96d17"/><path d="M80,100s-1.53,4.81-8.56,4.81c-8.19,0-10.12-4.37-10.12-4.37a34.57,34.57,0,0,0,1.54-5.2h0a28.1,28.1,0,0,0,.65-6.48l14.39-.57c.14,1.22.35,2.65.6,4.1C79.18,96.11,80,100,80,100Z" style="fill:#ffb8a1"/><path d="M78.53,92.28c-2.23,1.55-7.11,3.85-15.64,3a28.1,28.1,0,0,0,.65-6.48l14.39-.57C78.07,89.4,78.28,90.83,78.53,92.28Z" style="fill:#3f2037"/><path d="M58.05,70s-4.45-6.06-7.92-2.47,3.22,16.08,9.28,13.36Z" style="fill:#ffb8a1"/><path d="M55.93,77.15a.31.31,0,0,1-.31-.27,11.32,11.32,0,0,0-4-6.82.32.32,0,0,1-.06-.43.31.31,0,0,1,.44-.06,11.86,11.86,0,0,1,4.2,7.23.3.3,0,0,1-.26.34Z" style="fill:#ff8a8a"/><path d="M55,74.12a.31.31,0,0,1-.25-.13c-.45-.67-1.79-.73-2.26-.7a.31.31,0,1,1,0-.62c.08,0,2.07-.11,2.81,1a.31.31,0,0,1-.09.43A.34.34,0,0,1,55,74.12Z" style="fill:#ff8a8a"/><path d="M85.18,70s4.45-6.06,7.92-2.47-3.22,16.08-9.28,13.36Z" style="fill:#ffb8a1"/><path d="M87.3,77.15h0A.3.3,0,0,1,87,76.8a11.86,11.86,0,0,1,4.2-7.23.3.3,0,0,1,.43.06.3.3,0,0,1,0,.43,11.36,11.36,0,0,0-4,6.82A.31.31,0,0,1,87.3,77.15Z" style="fill:#ff8a8a"/><path d="M88.24,74.12a.34.34,0,0,1-.17-.05.31.31,0,0,1-.09-.43c.74-1.08,2.73-1,2.81-1a.31.31,0,1,1,0,.62c-.48,0-1.81,0-2.26.7A.31.31,0,0,1,88.24,74.12Z" style="fill:#ff8a8a"/><path d="M75.37,52.31A17.36,17.36,0,0,0,54.45,73.05c2,8.83,6.33,20,17,20.22,11.15.26,15.62-11.88,17.21-21.08A17.31,17.31,0,0,0,77.1,52.8C76.54,52.62,76,52.45,75.37,52.31Z" style="fill:#ffb8a1"/><path d="M72.36,80.66a4.55,4.55,0,0,1-1.75-.41.45.45,0,0,1-.26-.46L71.24,73a.45.45,0,0,1,.5-.38.42.42,0,0,1,.37.49l-.84,6.5a2.18,2.18,0,0,0,2.1-.08.44.44,0,1,1,.49.73A2.62,2.62,0,0,1,72.36,80.66Z" style="fill:#ff8a8a"/><path d="M71.55,85.17a10.37,10.37,0,0,1-4.46-1,.45.45,0,0,1-.17-.6.44.44,0,0,1,.6-.17A8.11,8.11,0,0,0,76.8,82.2a.44.44,0,0,1,.6.64A8.42,8.42,0,0,1,71.55,85.17Z" style="fill:#ff8a8a"/><path d="M72.26,87.68a6.58,6.58,0,0,1-1.84-.26.43.43,0,1,1,.26-.83h0A5,5,0,0,0,74,86.41a.44.44,0,1,1,.44.76A4.44,4.44,0,0,1,72.26,87.68Z" style="fill:#ff8a8a"/><path d="M63,68.18a12,12,0,0,1,3.67-1.34,1.14,1.14,0,0,0,.93-1.51l0-.14a1.13,1.13,0,0,0-1.2-.75,8.07,8.07,0,0,0-4.7,1.93,1.14,1.14,0,0,0-.28,1.14h0A1.15,1.15,0,0,0,63,68.18Z" style="fill:#3f2037"/><path d="M81.16,68.18a12,12,0,0,0-3.67-1.34,1.14,1.14,0,0,1-.93-1.51l0-.14a1.13,1.13,0,0,1,1.2-.75,8.07,8.07,0,0,1,4.7,1.93,1.14,1.14,0,0,1,.28,1.14h0A1.15,1.15,0,0,1,81.16,68.18Z" style="fill:#3f2037"/><g style="opacity:0.5"><path d="M66.21,76.07c0,1.08-2,2-4.44,2s-4.44-.87-4.44-2,2-1.95,4.44-1.95S66.21,75,66.21,76.07Z" style="fill:#ff8a8a"/></g><g style="opacity:0.5"><path d="M87.1,76.07c0,1.08-2,2-4.44,2s-4.44-.87-4.44-2,2-1.95,4.44-1.95S87.1,75,87.1,76.07Z" style="fill:#ff8a8a"/></g><path d="M54.91,75s-2.34-12.89-1.62-15.84,2.24-2.41,2.24-2.41S42.9,46.38,49.18,40.51C53.73,36.27,59,45.35,59,45.35S56.37,36.42,60,35.2c4.59-1.53,6.66,9.17,6.66,9.17s-.37-8,3.35-7.83c5.17.22,2.26,6.19,7.86,8.52S92,48.57,88.93,58c0,0,4.12-.18-1,16.58h0a10,10,0,0,1-1.87-6.33,18.05,18.05,0,0,0-.28-5S82.57,61,82.72,57.73c0,0-11.28,6.69-21.69.72,0,0,.65,3.86-2.62,4.44A22.89,22.89,0,0,0,57,69a13.31,13.31,0,0,1-2,5.83Z" style="fill:#3f2037"/><path d="M87.89,52.07s1.78-6.08,4.66-4.53c2.06,1.12-2.73,5.75-2.73,5.75s4-2.18,6-.65S92.55,56,89.51,55.47,87.89,52.07,87.89,52.07Z" style="fill:#3f2037"/><path d="M66.52,71.53c0,1.19-.42,2.16-1,2.17s-1-1-1.06-2.14.42-2.16,1-2.17S66.5,70.34,66.52,71.53Z" style="fill:#3f2037"/><path d="M77.15,71.53c0,1.19.42,2.16,1,2.17s1-1,1.05-2.14-.42-2.16-1-2.17S77.17,70.34,77.15,71.53Z" style="fill:#3f2037"/><path d="M59.85,109.78V122H59V109.78a.39.39,0,0,1,.09-.26.44.44,0,0,1,.78.17A.28.28,0,0,1,59.85,109.78Z" style="fill:#fff"/><path d="M84.26,109.78V122h-.88V109.78a.44.44,0,0,1,.44-.44.46.46,0,0,1,.42.3A.59.59,0,0,1,84.26,109.78Z" style="fill:#fff"/><path d="M56.69,304.48s-2.38,6-1,8,3.89-2,3.89-2-2,7.32.81,8.05,5.9-5.55,5.9-5.55S60.79,301.85,56.69,304.48Z" style="fill:#3f2037"/><path d="M87.49,304.48s2.37,6,1,8-3.9-2-3.9-2,2.05,7.32-.8,8.05S77.92,313,77.92,313,83.39,301.85,87.49,304.48Z" style="fill:#3f2037"/><path d="M111,346.83H33s.07-.87.3-2.15c.07-.44.17-.92.29-1.43a21.51,21.51,0,0,1,.89-3c.19-.49.39-1,.62-1.43a8.24,8.24,0,0,1,2.36-3,4.77,4.77,0,0,1,1-.58c.49-.2,1.15-.49,1.92-.85,1.63-.75,3.8-1.82,6.15-3L49.28,330l.08,0c2-1,4-2.05,5.84-3L57,326l1-.51.15-.07,4.82-2.55h0l0,0,.06,0,.59.14c.75.16,1.5.31,2.25.43s1.49.21,2.23.29a37.38,37.38,0,0,0,12.33-.85h0s1.85,1,4.57,2.34l.64.33,2.8,1.42,2.78,1.4,2.2,1.11,1,.51,2.87,1.43c2.41,1.18,4.63,2.26,6.29,3,.79.36,1.45.65,1.94.85a4.77,4.77,0,0,1,1,.58,8.24,8.24,0,0,1,2.36,3c.23.46.43.94.62,1.43a21.51,21.51,0,0,1,.89,3c.12.51.22,1,.29,1.43C110.93,346,111,346.83,111,346.83Z" style="fill:#0075cf"/><path d="M88.41,326.91H55.2l2.71-1.42h27.7Z" style="fill:#0056a8"/><path d="M97.28,331.36H46.56L49.28,330l.08,0H94.41Z" style="fill:#0056a8"/><path d="M106.54,335.8H37.46a4.77,4.77,0,0,1,1-.58c.49-.2,1.15-.49,1.92-.85h63.16c.79.36,1.45.65,1.94.85A4.77,4.77,0,0,1,106.54,335.8Z" style="fill:#0056a8"/><path d="M109.52,340.24h-75c.19-.49.39-1,.62-1.43h73.8C109.13,339.27,109.33,339.75,109.52,340.24Z" style="fill:#0056a8"/><path d="M110.7,344.68H33.3c.07-.44.17-.92.29-1.43h76.82C110.53,343.76,110.63,344.24,110.7,344.68Z" style="fill:#0056a8"/><path d="M85,325.16c-.89,3.15-4.76,8.1-13,8.1-8.5,0-13.2-4.58-15-7.26l1-.51.15-.07,4.82-2.55h0l0,0,.06,0,.59.14c.75.16,1.5.31,2.25.43s1.49.21,2.23.29a37.38,37.38,0,0,0,12.33-.85h0S82.25,323.78,85,325.16Z" style="fill:#0056a8"/><path d="M80.79,324.81s-1.53,4.81-8.56,4.81c-8.19,0-10.12-4.37-10.12-4.37a36,36,0,0,0,1.53-5.2h0a28.41,28.41,0,0,0,.66-6.49L78.7,313c.13,1.21.35,2.65.59,4.1C79.94,320.92,80.79,324.81,80.79,324.81Z" style="fill:#ffb8a1"/><path d="M79.29,317.09c-2.23,1.55-7.11,3.86-15.65,3a28.41,28.41,0,0,0,.66-6.49L78.7,313C78.83,314.2,79.05,315.64,79.29,317.09Z" style="fill:#3f2037"/><path d="M58.8,294.77s-4.46-6.07-7.93-2.47,3.22,16.09,9.29,13.37Z" style="fill:#ffb8a1"/><path d="M56.67,301.94a.3.3,0,0,1-.3-.26,11.43,11.43,0,0,0-4-6.83.31.31,0,0,1,.37-.49A11.84,11.84,0,0,1,57,301.59a.31.31,0,0,1-.27.35Z" style="fill:#ff8a8a"/><path d="M55.74,298.91a.3.3,0,0,1-.26-.13c-.44-.66-1.78-.73-2.26-.7a.31.31,0,1,1,0-.62c.09,0,2.08-.11,2.81,1a.31.31,0,0,1-.08.43A.26.26,0,0,1,55.74,298.91Z" style="fill:#ff8a8a"/><path d="M86.37,294.77s4.45-6.07,7.92-2.47S91.07,308.39,85,305.67Z" style="fill:#ffb8a1"/><path d="M88.49,301.94h0a.3.3,0,0,1-.26-.35,11.9,11.9,0,0,1,4.2-7.23.31.31,0,0,1,.44.06.31.31,0,0,1-.06.43,11.36,11.36,0,0,0-4,6.83A.31.31,0,0,1,88.49,301.94Z" style="fill:#ff8a8a"/><path d="M89.43,298.91a.31.31,0,0,1-.18-.05.32.32,0,0,1-.08-.43c.74-1.08,2.73-1,2.81-1a.32.32,0,0,1,.29.33.31.31,0,0,1-.33.29c-.48,0-1.81,0-2.26.7A.3.3,0,0,1,89.43,298.91Z" style="fill:#ff8a8a"/><path d="M76.13,277.09c-12.47-3-21.09,6.15-19.94,20.37.74,9,5.34,20.36,16,20.62,11.16.26,17-10.45,17-22.95,0-9.57-3.21-14.88-11.35-17.55C77.3,277.4,76.72,277.23,76.13,277.09Z" style="fill:#ffb8a1"/><path d="M54.47,284.46s-2.47,5.71-1.58,6.73a1.67,1.67,0,0,0,1.93.28s-.48,6.23,2.16,6.47,2.31-11.44,2.31-11.44,4.37.12,3.55-3.5c0,0,11.33,2.15,20.07-.15,0,0-.36,3.5,2.59,4,0,0-1.71,10.6,1.41,11.38s3-6.51,3-6.51a3.42,3.42,0,0,0,1.92-.52c1.28-1.26-.81-8.11-4.25-12.6C83.79,273.64,65,264.3,54.47,284.46Z" style="fill:#3f2037"/><path d="M91.61,283.14s-.83-.19-2.33-.43l-.46-.08c-1.53-.24-3.63-.52-6.18-.74l-.45,0c-1.82-.15-3.85-.27-6-.32H75.7c-1.89,0-3.9,0-6,.07l-.44,0q-2.94.13-6.08.49l-.44,0c-2,.24-4.13.56-6.24,1l-.45.09c-.8.16-1.6.34-2.4.53A19.89,19.89,0,0,1,60,272.49c.29-.25.6-.49.92-.73a17.2,17.2,0,0,1,5.31-2.6l.54-.15a21.86,21.86,0,0,1,3.76-.62h0l.45,0c.48,0,1,0,1.49,0,.7,0,1.37,0,2,.07l.45,0a22.09,22.09,0,0,1,3.79.67l.53.16h0a17.55,17.55,0,0,1,5.36,2.65h0c.31.23.62.47.9.71h0A18.84,18.84,0,0,1,91.61,283.14Z" style="fill:#ff4f4e"/><path d="M60.89,271.76a33.79,33.79,0,0,0-4.4,11.37,19,19,0,0,0-.22,2.37l-.44,0a17.26,17.26,0,0,1,.21-2.26A32.68,32.68,0,0,1,60,272.49C60.26,272.24,60.57,272,60.89,271.76Z" style="fill:#c42c31"/><path d="M66.74,269a53.55,53.55,0,0,0-3.57,13.09c-.13,1.12-.22,2.26-.24,3.39h-.44a30.88,30.88,0,0,1,.24-3.33,53.59,53.59,0,0,1,3.47-13Z" style="fill:#c42c31"/><path d="M71,268.36c-.36,2.49-1,7.63-1.26,13.23-.06,1.29-.09,2.59-.1,3.9h-.44c0-1.3,0-2.6.1-3.88.25-5.56.89-10.68,1.25-13.22h0Z" style="fill:#c42c31"/><path d="M76.25,285.49h-.44c0-1.33,0-2.66-.11-4-.25-5.55-.89-10.64-1.24-13.13l.45,0c.35,2.54,1,7.6,1.23,13.1C76.2,282.83,76.24,284.16,76.25,285.49Z" style="fill:#c42c31"/><path d="M82.91,285.48h-.44a31.51,31.51,0,0,0-.28-3.64A53.62,53.62,0,0,0,78.7,269.1l.53.16h0a53.92,53.92,0,0,1,3.4,12.63A33.16,33.16,0,0,1,82.91,285.48Z" style="fill:#c42c31"/><path d="M89.57,285.48l-.44,0a19.83,19.83,0,0,0-.31-2.87,34.21,34.21,0,0,0-4.22-10.72c.31.23.62.47.9.71h0a33.28,33.28,0,0,1,3.77,10.08A20,20,0,0,1,89.57,285.48Z" style="fill:#c42c31"/><path d="M52.7,283.75a7.44,7.44,0,0,0,.19,5.47s12.44-7.44,39.32-.48c0,0,1.68-1.91,0-5.35C92.21,283.39,71.47,274.29,52.7,283.75Z" style="fill:#c42c31"/><path d="M73.12,305.46a4.55,4.55,0,0,1-1.75-.41.45.45,0,0,1-.26-.46l.89-6.85a.45.45,0,0,1,.5-.38.44.44,0,0,1,.38.49L72,304.36a2.21,2.21,0,0,0,2.1-.08.44.44,0,0,1,.5.73A2.65,2.65,0,0,1,73.12,305.46Z" style="fill:#ff8a8a"/><path d="M72.31,310a10.08,10.08,0,0,1-4.46-1.06.44.44,0,0,1,.43-.77A8.13,8.13,0,0,0,77.57,307a.43.43,0,0,1,.62,0,.44.44,0,0,1,0,.62A8.39,8.39,0,0,1,72.31,310Z" style="fill:#ff8a8a"/><path d="M73,312.49a6.58,6.58,0,0,1-1.84-.26.43.43,0,0,1-.29-.55.44.44,0,0,1,.55-.29h0a4.92,4.92,0,0,0,3.34-.18.44.44,0,0,1,.43.76A4.41,4.41,0,0,1,73,312.49Z" style="fill:#ff8a8a"/><path d="M63.74,293a12.29,12.29,0,0,1,3.67-1.33,1.14,1.14,0,0,0,.93-1.51l0-.14a1.15,1.15,0,0,0-1.19-.76,8.1,8.1,0,0,0-4.71,1.93,1.16,1.16,0,0,0-.28,1.15h0A1.14,1.14,0,0,0,63.74,293Z" style="fill:#3f2037"/><path d="M81.93,293a12.29,12.29,0,0,0-3.67-1.33,1.14,1.14,0,0,1-.93-1.51l0-.14a1.15,1.15,0,0,1,1.19-.76,8.1,8.1,0,0,1,4.71,1.93,1.16,1.16,0,0,1,.28,1.15h0A1.14,1.14,0,0,1,81.93,293Z" style="fill:#3f2037"/><g style="opacity:0.5"><path d="M67,300.87c0,1.07-2,1.95-4.44,1.95s-4.45-.88-4.45-1.95,2-2,4.45-2S67,299.79,67,300.87Z" style="fill:#ff8a8a"/></g><g style="opacity:0.5"><path d="M87.87,300.87c0,1.07-2,1.95-4.44,1.95S79,301.94,79,300.87s2-2,4.45-2S87.87,299.79,87.87,300.87Z" style="fill:#ff8a8a"/></g><path d="M67.27,296.32c0,1.19-.42,2.16-1,2.17s-1-.94-1.05-2.13.41-2.17,1-2.18S67.25,295.13,67.27,296.32Z" style="fill:#3f2037"/><path d="M77.91,296.32c0,1.19.42,2.16,1,2.17s1-.94,1.06-2.13-.42-2.17-1-2.18S77.93,295.13,77.91,296.32Z" style="fill:#3f2037"/><path d="M111,231H34.4s.77-9.55,5.4-11.4c1.87-.75,6.15-2.88,10.59-5.16,6.21-3.17,12.73-6.63,13.39-7l.06,0,.59.13c.73.17,1.46.31,2.2.43s1.46.21,2.19.28a36.57,36.57,0,0,0,12.11-.83h0s5,2.58,10.59,5.4l2.17,1.08c4.94,2.47,9.88,4.89,11.9,5.7C110.23,221.41,111,231,111,231Z" style="fill:#130f40"/><path d="M81.34,209.33s-1.51,4.73-8.41,4.73c-8.05,0-9.94-4.3-9.94-4.3a34.28,34.28,0,0,0,1.5-5.1h0a27.78,27.78,0,0,0,.65-6.38l14.14-.56c.13,1.2.34,2.61.58,4C80.5,205.52,81.34,209.33,81.34,209.33Z" style="fill:#ffb8a1"/><path d="M79.86,201.75c-2.19,1.52-7,3.79-15.37,2.91a27.78,27.78,0,0,0,.65-6.38l14.14-.56C79.41,198.92,79.62,200.33,79.86,201.75Z" style="fill:#3f2037"/><path d="M59.74,179.84s-4.38-6-7.78-2.43,3.16,15.8,9.11,13.13Z" style="fill:#ffb8a1"/><path d="M57.65,186.88a.3.3,0,0,1-.3-.26,11.24,11.24,0,0,0-3.9-6.71.3.3,0,1,1,.37-.48,11.68,11.68,0,0,1,4.13,7.1.3.3,0,0,1-.26.34Z" style="fill:#ff8a8a"/><path d="M56.73,183.9a.3.3,0,0,1-.25-.13c-.44-.65-1.75-.71-2.22-.69a.29.29,0,0,1-.32-.28.3.3,0,0,1,.28-.32c.09,0,2-.11,2.76,1a.29.29,0,0,1-.08.42A.26.26,0,0,1,56.73,183.9Z" style="fill:#ff8a8a"/><path d="M86.4,179.84s4.38-6,7.79-2.43-3.17,15.8-9.12,13.13Z" style="fill:#ffb8a1"/><path d="M88.49,186.88h0a.3.3,0,0,1-.26-.34,11.68,11.68,0,0,1,4.13-7.1.3.3,0,1,1,.37.48,11.28,11.28,0,0,0-3.9,6.71A.3.3,0,0,1,88.49,186.88Z" style="fill:#ff8a8a"/><path d="M89.41,183.9a.26.26,0,0,1-.17-.05.29.29,0,0,1-.08-.42c.72-1.06,2.67-1,2.76-1a.3.3,0,0,1,.28.32.29.29,0,0,1-.32.28c-.47,0-1.78,0-2.22.69A.3.3,0,0,1,89.41,183.9Z" style="fill:#ff8a8a"/><path d="M76.76,162.47A17.06,17.06,0,0,0,56.2,182.85c1.95,8.68,6.22,19.62,16.73,19.87C83.88,203,88.28,191.05,89.84,182A17,17,0,0,0,78.46,163C77.91,162.77,77.34,162.61,76.76,162.47Z" style="fill:#ffb8a1"/><path d="M73.81,190.33a4.31,4.31,0,0,1-1.72-.4.44.44,0,0,1-.26-.46l.88-6.72a.42.42,0,0,1,.48-.37.43.43,0,0,1,.37.48l-.83,6.39a2.15,2.15,0,0,0,2.07-.08.43.43,0,0,1,.48.72A2.54,2.54,0,0,1,73.81,190.33Z" style="fill:#ff8a8a"/><path d="M73,194.77a9.88,9.88,0,0,1-4.38-1,.43.43,0,1,1,.42-.75,8,8,0,0,0,9.12-1.14.44.44,0,0,1,.61,0,.43.43,0,0,1,0,.61A8.21,8.21,0,0,1,73,194.77Z" style="fill:#ff8a8a"/><path d="M73.71,197.24a6.52,6.52,0,0,1-1.82-.26.43.43,0,1,1,.26-.82h0a4.89,4.89,0,0,0,3.28-.18.43.43,0,0,1,.59.16.44.44,0,0,1-.17.59A4.34,4.34,0,0,1,73.71,197.24Z" style="fill:#ff8a8a"/><path d="M64.59,178.06a11.89,11.89,0,0,1,3.61-1.31,1.12,1.12,0,0,0,.91-1.49l0-.13a1.11,1.11,0,0,0-1.17-.74,7.89,7.89,0,0,0-4.62,1.89,1.13,1.13,0,0,0-.28,1.13h0A1.13,1.13,0,0,0,64.59,178.06Z" style="fill:#debe99"/><path d="M82.45,178.06a11.83,11.83,0,0,0-3.6-1.31,1.12,1.12,0,0,1-.91-1.49l0-.13a1.12,1.12,0,0,1,1.18-.74,7.92,7.92,0,0,1,4.62,1.89,1.12,1.12,0,0,1,.27,1.13h0A1.12,1.12,0,0,1,82.45,178.06Z" style="fill:#debe99"/><g style="opacity:0.5"><path d="M67.75,185.82c0,1.06-2,1.92-4.36,1.92S59,186.88,59,185.82s1.95-1.92,4.36-1.92S67.75,184.76,67.75,185.82Z" style="fill:#ff8a8a"/></g><g style="opacity:0.5"><path d="M88.29,185.82c0,1.06-2,1.92-4.37,1.92s-4.36-.86-4.36-1.92,2-1.92,4.36-1.92S88.29,184.76,88.29,185.82Z" style="fill:#ff8a8a"/></g><path d="M90.09,168c2.58-7.93-3.2-9.9-8.37-11.75-1-.24-2.08-.54-3.11-.85a7.16,7.16,0,0,1-1.79-.11c-.3-.07-.61-.12-.91-.17-8.14.34-16.15,2.88-22.37,8a35.63,35.63,0,0,0,3.72,3.65s-1.49-.53-2.2,2.37,1.59,15.57,1.59,15.57l.1-.16a13.16,13.16,0,0,0,1.94-5.73,22.51,22.51,0,0,1,1.4-6c3.22-.57,2.57-4.36,2.57-4.36,10.23,5.86,21.32-.72,21.32-.72-.14,3.22,3,5.42,3,5.42a17.15,17.15,0,0,1,.27,4.89,9.9,9.9,0,0,0,1.85,6.22C94.13,167.85,90.09,168,90.09,168Z" style="fill:#debe99"/><path d="M68.06,181.36c0,1.17-.41,2.12-1,2.13s-1-.93-1-2.1.41-2.12,1-2.13S68,180.19,68.06,181.36Z" style="fill:#3f2037"/><path d="M78.51,181.36c0,1.17.41,2.12,1,2.13s1-.93,1-2.1-.41-2.12-1-2.13S78.53,180.19,78.51,181.36Z" style="fill:#3f2037"/><rect x="135" y="48" width="163" height="14" style="fill:#e6e6e6"/><rect x="133.83" y="74" width="294.93" height="14" style="fill:#e6e6e6"/><rect x="133.83" y="100" width="294.93" height="14" style="fill:#e6e6e6"/><rect x="135" y="162" width="163" height="14" style="fill:#e6e6e6"/><rect x="133.83" y="188" width="294.93" height="14" style="fill:#e6e6e6"/><rect x="133.83" y="214" width="294.93" height="14" style="fill:#e6e6e6"/><rect x="135" y="280" width="163" height="14" style="fill:#e6e6e6"/><rect x="133.83" y="306" width="294.93" height="14" style="fill:#e6e6e6"/><rect x="133.83" y="332" width="294.93" height="14" style="fill:#e6e6e6"/></g></g></svg>