<svg xmlns="http://www.w3.org/2000/svg" viewBox="0 0 110.54 219.59"><title>take-photo</title><g id="Layer_2" data-name="Layer 2"><g id="Objects"><ellipse cx="43.4" cy="211.09" rx="43" ry="8.5" style="fill:#ecedeb"/><polygon points="8.8 91.86 20.8 93.36 21.05 129.37 2.54 126.62 8.8 91.86" style="fill:#b57053"/><polygon points="21.05 129.37 28.8 120.36 26.05 91.11 20.8 93.36 21.05 129.37" style="fill:#a75e43"/><path d="M24.27,88.77a118.49,118.49,0,0,0,.5,22.76c1.5,11.75,8.5,27.75,9,33s-5.5,15.5-5.5,24,5.75,23.76,5,29.26-3.75,10.75-3,13,5.25,0,6.75-3.75,1.5-7.5,1.5-12,4-23.26,5.5-33.51,0-20.76,0-27.76-.5-19-.5-19H46s1.75,16.75,1.75,29-2,24.76-2.25,34.51-1.75,20.51-.75,23.26,9,10.5,10.51,7-5-7.75-5-11.5,6.26-14.76,8.26-25.76.25-22.75.5-27.26,4.75-16.5,6-27.5a90.55,90.55,0,0,0-.25-21S35.52,95.27,24.27,88.77Z" style="fill:#da5955"/><path d="M24.27,88.77a118.49,118.49,0,0,0,.5,22.76c1.5,11.75,8.5,27.75,9,33s-5.5,15.5-5.5,24c0,4.34,1.49,10.43,2.86,16.09a25.16,25.16,0,0,0,4.42.75,16.8,16.8,0,0,0,4.3-.14c1.31-7.5,3.23-17.27,4.17-23.7,1.5-10.25,0-20.76,0-27.76s-.5-19-.5-19H46s1.75,16.75,1.75,29-2,24.76-2.25,34.51c-.05,2.12-.17,4.27-.3,6.39a19.13,19.13,0,0,0,8.72,1.47,82.49,82.49,0,0,0,4.59-14.86c2-11,.25-22.75.5-27.26s4.75-16.5,6-27.5a90.55,90.55,0,0,0-.25-21S35.52,95.27,24.27,88.77Z" style="fill:#da5955"/><path d="M43.52,24.76s1.25,8.5.5,14.5S40.77,51.51,35.77,63s-11.5,25.75-5,32,18.5,6.5,24,4.75,7.76-7,9-19S58.28,49.51,58.28,42s.25-11.75-.5-15.75S46.52,19.25,43.52,24.76Z" style="fill:#decbb6"/><path d="M38.75,56c4,1.4,10.88,3.39,17,2.72A15.15,15.15,0,0,0,61,57.27C59.6,51,58.28,45.34,58.28,42c0-7.5.25-11.75-.5-15.75s-11.26-7-14.26-1.5c0,0,1.25,8.5.5,14.5C43.44,43.92,41.8,48.74,38.75,56Z" style="fill:#f2957e"/><polygon points="10.53 7.4 12.11 28.85 18.83 29.86 16.89 6.07 10.53 7.4" style="fill:#7eb9f5"/><path d="M1.81,35.61s-1.32-5.8-.66-6.7S6.78,17.52,6.78,17.52l8.55-3.6.81,1.55-6,2.56,6.72.45-.16,4-6.12,1.77S9,28.23,8.19,28.91,6,31.18,6,31.18l2,4.33Z" style="fill:#f6ba99"/><path d="M39.77,38c-3-.5-8.75-2.75-10.5.25-.06.09-.13.19-.21.29-.07.34-.14.68-.2,1A58,58,0,0,1,28,49.21a38.67,38.67,0,0,1-.58,4.32l.88-.27s-1,5.5-3,13-9.5,24-9.5,24,5.5,5.75,9.75,8.5S38,104.28,38,104.28A162.51,162.51,0,0,0,41.52,83c.75-9.75,3.25-39.26,3.25-39.26C45.77,37.51,42.77,38.51,39.77,38Z" style="fill:#393762"/><path d="M34.46,53.93s.08.32.21.9a23.38,23.38,0,0,1,3-1.94c-.32-5.34-4.91-10.7-5.55-16-1.55.6-2.74,1.5-2.9,3-.36,3.45-14.79,14-14.79,14L8.6,32.39,0,34.61S4.56,67.93,5.28,69.52s6.25.48,15-5.09A117.12,117.12,0,0,0,34.46,53.93Z" style="fill:#393762"/><polygon points="37.05 37.59 15.05 93.36 19.05 93.36 41.55 38.09 37.05 37.59" style="fill:#b57053"/><path d="M41.5,83.26a1.94,1.94,0,0,0,0-.24c.75-9.75,3.25-39.26,3.25-39.26,1-6.25-2-5.25-5-5.75L32.52,58Z" style="fill:#706f8e"/><path d="M89.53,107.78s10.76,6.5,11.51,6,5.75-3.75,5.75-3.75l1.25,1.25,2.5-3s-3-4.75-4-4.75-11.26,1.25-11.26,1.25l-3-.75Z" style="fill:#f6ba99"/><polyline points="106.79 110.03 104.29 109.03 102.29 110.28" style="fill:none;stroke:#393762;stroke-miterlimit:10;stroke-width:0.5px"/><path d="M56.78,39.51s-5,20.75-6,31.51-3,33.51-3,33.51L66.28,100V74.27S73,90.77,76,95.52s12.25,16,12.25,16l7-6.75S81.28,85,77.78,75.27,72.53,56,70.53,50,63.28,38.26,56.78,39.51Z" style="fill:#393762"/><path d="M59.8,39.44a9.32,9.32,0,0,0-3,.07s-5,20.75-6,31.51c-.31,3.35-.72,7.86-1.13,12.49,2.88-4.24,12-17.84,12.89-21C63.5,58.85,60.19,42.1,59.8,39.44Z" style="fill:#706f8e"/><path d="M52.52,0S37.27,3.5,36.77,9.75s3,10,3,13.51-6,16-4.25,21.5,9,6.75,10.5,1.75-1-14.75-1.5-18.75S45.27,18,49.27,17.5s5.25,3.51,6.51,7.76.25,14.5.5,22S61.53,59,64,57.26s3.5-5.25,5-4a14.63,14.63,0,0,1,2.75,3.5,14.15,14.15,0,0,0,.5-8.75c-1.25-5-6-4.75-6.75-9.5s3.5-19.76,1-28.76S52.52,0,52.52,0Z" style="fill:#e69d35"/><path d="M49,7.5s-6,7.25-6.5,11.25S43,32.76,48,34s8.76-5,8.76-6.75a53,53,0,0,1,1.25-7S49.77,11.5,49,7.5Z" style="fill:#f6ba99"/><path d="M35.05,201.38a3.23,3.23,0,0,1-2.23-1.23c-1.09,4.6-3.19,8.72-2.55,10.65.75,2.25,5.25,0,6.75-3.75a21.57,21.57,0,0,0,1.4-7A4,4,0,0,1,35.05,201.38Z" style="fill:#393762"/><path d="M48.31,200.38a5.32,5.32,0,0,1-3.87-1.68,10.14,10.14,0,0,0,.33,2.85c1,2.75,9,10.5,10.51,7,1.14-2.67-2.37-5.78-4.1-8.77A7.07,7.07,0,0,1,48.31,200.38Z" style="fill:#393762"/></g></g></svg>